<?xml version="1.0"?>
<svg width="1024" height="1024" xmlns="http://www.w3.org/2000/svg" xmlns:svg="http://www.w3.org/2000/svg" class="icon" version="1.1">
 <g class="layer" display="inline">
  <title>Layer 1</title>
  <path d="m522.33,30.33c-72.91,75.43 -131.13,160.72 -143.65,210.48c-9.2,36.53 -1,101.1 17.69,139.22l8.65,17.66l-21.46,0c-22.82,0 -41.08,2.51 -58.19,8.02c-9.63,3.1 -11.75,3.06 -25.41,-0.56c-49.6,-13.13 -99.08,0.24 -135.4,36.59c-34.21,34.24 -43.99,62.6 -44.05,127.71c-0.03,35.84 1.64,43.04 6.91,29.82c22.18,-55.76 50.58,-85.33 89.76,-93.46c12.02,-2.5 21.41,-2.32 75.62,1.39c50.95,3.49 76.68,-48.29 41.49,-83.48c-10.8,-10.81 -11.46,-10.29 16.19,-12.7c110.12,-9.61 216.92,48.48 269.26,146.45c30.53,57.14 -5.01,92.1 -79.22,77.91c-52.22,-9.98 -84.9,10.68 -84.9,53.67c0,76.36 125.55,94.6 191.74,27.85c54.3,-54.75 52.85,-129.89 -3.93,-204.68c-8.34,-10.99 -14.84,-20.24 -14.45,-20.57c0.39,-0.32 11.64,-4.3 25,-8.84c107.85,-36.57 129.71,-71.43 143.41,-228.71c7.19,-82.58 9.17,-141.39 4.76,-141.39c-5.19,0 -88.76,63.84 -126.69,96.77l-16.08,13.96l-8.52,-6.75c-16.07,-12.73 -34.28,-19.31 -64.36,-23.26l-10.04,-1.33l-4.94,-36.93c-6.29,-47.14 -11.61,-72.72 -21.57,-103.8c-11.65,-36.33 -12.33,-36.85 -27.62,-21.04m-15.84,213.51c53.89,27.97 35.34,110.77 -24.82,110.77c-65.42,0 -82.84,-90.16 -21.8,-112.87c10.99,-4.09 36.95,-2.92 46.62,2.1m-27.05,22.33c-19.43,19.91 -26.31,46.45 -17.63,68.01c6.21,15.39 35.51,-24.96 37.74,-51.96c2.38,-28.92 -3.2,-33.37 -20.11,-16.05m189.69,22.4c26.85,9.15 46.96,39.57 45.12,68.25c-3.89,60.7 -73.99,88.21 -117.03,45.94c-52.42,-51.49 2.06,-137.99 71.91,-114.19m-12.94,23.58c-3.64,2.69 -9.04,7.74 -11.99,11.22c-2.96,3.48 -6.48,7.45 -7.82,8.84c-11.86,12.24 -15.1,19.48 -15.74,35.19c-1.74,42.22 6.7,48.71 29.43,22.63c27.42,-31.44 32.61,-97.45 6.12,-77.88m-525.89,303.99c-57.24,26 -40.46,163.46 27.57,225.98c48.45,44.52 96.97,66.06 66.27,29.42c-38.82,-46.33 -49.47,-112.49 -28.39,-176.44c19,-57.67 -16.92,-101.01 -65.45,-78.96m159.18,48.86c-91.03,18.38 -77.28,197.5 19.95,259.7c108.98,69.71 267.79,44.32 356.72,-57.03c9.85,-11.24 23.08,-24.81 29.39,-30.15c51.45,-43.64 118.96,-24.12 129.54,37.45c11.04,64.3 64.67,59.32 90.87,-8.43c31.41,-81.22 -48.43,-169.79 -144.83,-160.67c-63.14,5.98 -113.92,37.36 -151.87,93.87c-43.09,64.16 -82.72,98.5 -139.78,121.14c-86.41,34.29 -142.53,-33.88 -121.56,-147.65c14,-75.96 -13.42,-119.34 -68.43,-108.23" fill="#FF4500 " id="svg_1"/>
  <path d="m517,729c-3.09,0.22 -4.03,0.36 -4.54,0.44c-1.1,0.17 -1.67,0.27 -3.46,0.56c-0.6,0.1 -1.2,0.2 -1.82,0.3c-1.26,0.19 -1.93,0.27 -2.61,0.35c-0.71,0.08 -2.24,0.2 -3.06,0.24c-0.85,0.04 -1.73,0.07 -2.64,0.09c-0.92,0.02 -1.85,0.03 -2.78,0.03c-0.93,0 -2.76,0 -3.65,0c-0.87,0 -1.72,0 -2.55,0c-0.81,0 -1.6,0 -2.37,0c-0.75,0 -2.19,0 -2.88,0c-0.67,0 -1.32,0 -1.96,0.01c-0.62,0.01 -1.23,0.01 -2.39,0.07c-1.12,0.06 -1.67,0.14 -2.72,0.27l-0.99,0.16l-0.46,0.09l-0.86,0.19" fill="none" id="svg_3"/>
  <line fill="none" id="svg_4" transform="matrix(1 0 0 1 0 0)" x1="376" x2="407" y1="653" y2="680"/>
  <ellipse cx="268.5" cy="703.5" fill="#ffffff" id="svg_5" rx="13.5" ry="12.5" transform="matrix(1 0 0 1 0 0)"/>
  <ellipse cx="338.19" cy="716.58" fill="#ffffff" id="svg_6" rx="14.5" ry="14" transform="matrix(1 0 0 1 0 0)"/>
  <ellipse cx="305.69" cy="686.08" fill="#ffffff" id="svg_7" rx="18" ry="18.5"/>
  <ellipse cx="127.19" cy="643.08" fill="#ffffff" id="svg_8" rx="11" ry="11" transform="matrix(1 0 0 1 0 0)"/>
  <ellipse cx="159.69" cy="633.09" fill="#ffffff" id="svg_9" rx="15" ry="16" transform="matrix(1 0 0 1 0 0)"/>
  <ellipse cx="181.69" cy="662.09" fill="#ffffff" id="svg_10" rx="12" ry="11.5" transform="matrix(1 0 0 1 0 0)"/>
  <path d="m402,563c0,0.44 0,1.26 0.17,2.17c0.15,0.79 0.45,1.6 0.67,2.67c0.14,0.7 0.18,1.61 0.74,2.57c0.39,0.66 0.99,1.26 1.41,2.02c0.43,0.77 0.63,1.62 1.22,2.61c0.35,0.58 1.09,1.28 1.8,1.97c0.49,0.48 1.46,0.84 2.2,1.29c0.68,0.41 1.22,1.39 2.1,1.66c0.77,0.24 1.7,0.06 2.5,0.06c0.9,0 1.84,0 2.68,0c0.86,0 1.89,0.1 2.72,0c0.92,-0.11 1.62,-0.68 2.4,-1.02c0.83,-0.37 1.56,-0.98 2.23,-1.37c0.69,-0.41 1.47,-1.12 2.27,-1.48c0.74,-0.33 1.76,-1.16 2.57,-0.79c0.76,0.35 0.33,1.41 0.33,2.65c0,0.74 0,1.6 0,2.06c0,0.96 0,2.46 0,2.96c0.01,1 0.01,1.5 0.06,2.5c0.02,0.5 0.15,2 0.3,2.99c0.07,0.49 0.24,1.44 0.44,2.34c0.28,1.23 0.5,1.95 0.68,2.61c0.24,0.87 0.35,1.9 0.58,2.75c0.28,1.04 0.81,1.58 1.23,2.15c0.63,0.87 1.14,1.64 2.01,1.66c0.9,0.02 1.8,0 2.59,0c0.94,0 1.95,0 2.74,0c0.86,0 1.66,0 2.71,-0.17c0.64,-0.1 1.7,-0.35 2.42,-0.59c1.09,-0.37 1.76,-0.72 2.4,-1.05c0.89,-0.47 1.67,-0.91 2.62,-1.12c0.67,-0.15 1.65,-0.26 2.44,-0.5c0.78,-0.24 1.82,-0.76 2.4,-1.16c0.87,-0.6 1.56,-1 2.36,-1.5l0.61,-0.5l0.71,-0.7l0.7,-0.54" fill="none" id="svg_12"/>
  <line fill="none" id="svg_13" x1="427" x2="503" y1="715" y2="738"/>
  <line fill="none" id="svg_14" x1="398" x2="515" y1="717" y2="701"/>
  <path d="m466,667c-1,1 -1,1.76 -1,2.66c0,0.8 0,1.76 0,2.58c0,0.92 0,1.92 0,2.64c0.01,0.77 0.02,1.6 0.08,2.48c0.11,1.47 0.19,1.99 0.34,3.05c0.07,0.52 0.23,1.5 0.41,2.75c0.09,0.61 0.05,1.52 0.2,2.47c0.14,0.87 0.5,1.55 0.88,2.48c0.38,0.9 1.24,1.23 1.84,1.99c0.48,0.61 0.76,1.41 1.44,2.1c0.6,0.6 1.14,1.34 2.12,1.68c0.65,0.23 1.62,0.42 2.43,0.77c0.87,0.38 1.65,0.35 2.65,0.35c0.8,0 1.8,0 2.43,0c1.02,0 2.03,0 2.83,0c0.87,0 1.33,0 2.25,0c1.36,0 2.22,0 3.06,0c0.82,0 2.02,0 2.82,0c0.79,0 1.57,0 2.32,0c1.06,0 2.05,0.01 2.67,-0.04c1.21,-0.09 1.82,-0.23 2.71,-0.48c0.91,-0.26 1.8,-0.57 2.69,-0.88c0.58,-0.2 1.65,-0.58 2.36,-0.9c0.69,-0.31 1.62,-0.86 2.41,-1.35c0.55,-0.34 1.36,-0.87 2.36,-1.46c0.66,-0.39 1.31,-0.74 2.08,-1.37c0.6,-0.49 1.25,-1.7 1.95,-1.85c0.64,-0.13 0.7,1.17 0.63,1.85c-0.12,1.03 -0.38,1.74 -0.68,2.47c-0.44,1.06 -0.95,1.67 -1.17,2.77c-0.12,0.6 -0.11,1.3 -0.17,2.05c-0.1,1.19 -0.23,1.99 -0.37,2.78c-0.14,0.78 -0.42,2.24 -0.49,2.93c-0.06,0.65 -0.08,1.58 -0.09,2.79c0,0.6 0,1.5 0,2.7c0,0.6 0,1.48 0,2.31c0,1 -0.13,1.85 0,2.93c0.11,0.88 0.7,1.46 1.4,2.16c0.6,0.6 1.16,1.25 1.9,1.9c0.66,0.58 1.5,0.7 2.34,0.7c1.03,0 1.83,0 2.79,0c0.84,0 1.46,0 2.15,0c1.17,0 2.04,0 2.97,0c0.48,0 1.46,0 2.96,0c0.5,0 1.5,0 2,0c1,0 2.5,0 3,0c1,0 1.98,0 2.46,0c0.95,0 2.31,0 3.17,0c0.8,0 1.55,0 2.53,0c0.81,0 1.67,0 2.71,0c0.95,0 1.67,0.08 2.63,-0.17c0.8,-0.21 1.54,-0.76 1.83,-1.61c0.27,-0.76 0.29,-1.73 0.61,-2.75c0.23,-0.73 0.56,-1.44 0.85,-2.11c0.47,-1.1 0.72,-1.93 1.13,-2.77l0.49,-0.8" fill="none" id="svg_15" transform="matrix(1 0 0 1 0 0)"/>
  <path d="m527,572c0.52,4.95 1.01,6.54 1.3,7.88c0.34,1.52 0.84,3.61 1.18,4.53c0.49,1.34 1.09,2.45 1.76,4.49c0.38,1.14 0.85,3.15 1.16,4.3c0.39,1.44 0.95,3.14 1.52,4.73c0.49,1.38 1.32,1.5 2.28,2.01c0.62,0.33 1.48,1.09 2.48,1.36c0.81,0.22 1.63,0.17 2.63,0.17c0.87,0 1.89,0 2.66,0c1,0 1.77,0 2.67,0c0.86,0 1.83,0 2.65,0c1.02,0 1.74,0.01 2.86,0c0.79,0 1.34,0.07 2.15,-0.17c1.24,-0.36 1.99,-1.33 2.93,-1.68c0.84,-0.32 1.64,-1.53 2.4,-1.27c0.59,0.2 0.36,2.8 0.36,4.31c0,1.99 0.01,3.36 0.17,5.69c0.1,1.48 0.26,3.08 0.41,4.69c0.14,1.52 0.29,3.89 0.45,5.31c0.2,1.78 0.54,3.51 0.92,5.2c0.33,1.46 1.15,2.31 1.63,3.58c0.52,1.4 0.54,3.48 1.43,3.81c0.79,0.3 1.7,0 2.64,0c0.85,0 1.57,0 2.56,0c0.82,0 1.97,0 2.77,0c0.6,0 1.61,0.01 2.78,0c0.87,-0.01 1.32,0 2.24,-0.14c0.93,-0.15 1.86,-0.45 2.73,-0.98c0.85,-0.51 1.64,-1.21 2.4,-1.86c1.06,-0.91 1.73,-1.4 2.6,-2.11c0.96,-0.77 1.62,-1.59 2.45,-2.77l0.65,-0.79" fill="none" id="svg_17"/>
  <path d="m538,603c0,1 -0.39,1.93 0.09,2.71c0.44,0.72 1.29,1.16 1.71,1.8c0.57,0.86 1.37,1.21 2.2,1.65c0.63,0.34 0.94,1.39 1.61,1.86c0.73,0.51 1.49,1.07 1.99,1.57c0.7,0.7 1.35,1.46 1.9,1.88c0.74,0.56 1.56,0.99 2.1,1.67c0.56,0.71 1.5,0.85 2.4,0.85c0.76,0 1.67,0.12 2.52,-0.09c0.89,-0.21 1.74,-0.69 2.48,-1.08c0.78,-0.41 1.31,-1.12 2,-1.83c0.57,-0.59 0.25,-1.82 1,-2.29c0.39,-0.24 0.75,1.14 1.02,1.88c0.31,0.85 0.91,1.5 0.97,2.41c0.06,0.88 -0.1,1.85 0.09,2.52c0.28,1.02 1.06,1.54 1.61,2.24c0.55,0.69 0.83,1.47 1.4,2.22c0.54,0.71 1.49,0.94 2.1,1.59c0.6,0.64 1.2,1.4 2,1.43c0.9,0.04 1.8,0 2.6,0c0.9,0 1.82,0 2.6,-0.43c0.82,-0.45 1.33,-1.06 1.65,-1.87c0.31,-0.77 0.8,-1.44 1.03,-2.22c0.25,-0.87 1.41,-1.1 1.86,-1.84c0.44,-0.72 0.06,-1.74 0.06,-2.64c0,-0.8 0.06,-1.7 0.5,-2.5c0.44,-0.8 0.36,-1.78 0.85,-2.45c0.49,-0.66 0.03,-0.95 -0.87,-1.07c-0.82,-0.12 -1.7,-0.51 -2.31,-1.18c-0.62,-0.67 -1.37,-0.8 -2.27,-0.8c-0.9,0 -1.66,0.04 -2.56,0c-0.95,-0.04 -1.74,-0.29 -2.51,-0.57c-0.95,-0.35 -1.72,-0.5 -2.67,-0.85c-0.77,-0.28 -1.76,-0.54 -2.56,-0.57c-1,-0.04 -1.8,0.08 -2.72,-0.29c-0.68,-0.28 -1.54,-0.68 -2.29,-0.71c-0.99,-0.04 -1.8,0 -2.8,0c-0.78,0 -1.8,0.11 -2.68,-0.09c-0.8,-0.17 -1.61,-0.73 -2.48,-0.88c-0.93,-0.15 -1.8,-0.2 -2.64,-0.54c-0.83,-0.33 -1.63,-0.44 -2.65,-0.5c-0.79,-0.05 -1.31,-0.72 -2.06,-1.29c-0.58,-0.44 -1.65,-0.67 -2.49,-0.71l-0.9,-0.22l-0.7,-0.49l-0.8,-0.27" fill="none" id="svg_20"/>
  <path d="m463,681c1.39,0.87 1.77,1.59 1.95,2.6c0.15,0.85 0.25,1.82 0.49,2.61c0.24,0.78 0.71,1.62 1.13,2.36c0.45,0.8 0.23,1.81 0.72,2.62c0.38,0.62 1.41,0.86 2.21,1.3c0.8,0.44 1.7,0.5 2.6,0.5c0.9,0 1.66,0 2.57,0c0.85,0 1.98,0 2.64,0c0.69,0 1.73,0 2.65,0c0.78,0 1.73,0 2.73,0c0.84,0 1.72,0 2.61,0c0.88,0 1.69,0.05 2.73,0c0.86,-0.04 1.6,-0.4 2.49,-0.71c0.93,-0.33 1.29,-0.93 1.92,-1.67c0.53,-0.63 1.71,-0.64 2.21,-1.32c0.52,-0.71 0.29,-1.79 0.39,-2.47c0.15,-0.96 0.89,-2.1 1.61,-1.65c0.81,0.5 0.37,1.69 0.44,2.31c0.12,1.03 0.35,2.15 0.53,2.92c0.18,0.79 0.39,1.59 0.59,2.39c0.2,0.81 0.4,1.63 0.6,2.48c0.31,1.33 0.4,1.8 0.6,2.71c0.2,0.87 0.31,1.7 0.8,2.87c0.31,0.73 0.76,1.55 0.8,2.46c0.03,0.85 0.35,1.76 0.65,2.37c0.44,0.9 0.3,1.79 0.39,2.52c0.12,1 0.33,1.88 1.06,2.55c0.6,0.55 1.28,1.12 1.7,1.76c0.57,0.86 1.41,1.36 2.09,1.57c0.96,0.29 1.61,0.75 2.59,0.9c0.91,0.13 1.83,0.02 2.58,0.02c1,0 1.64,0.02 2.7,-0.06c1.08,-0.08 1.77,-0.19 2.72,-0.48c0.63,-0.19 1.53,-0.61 2.42,-1.11c0.59,-0.32 1.39,-0.86 2.42,-1.18c0.65,-0.2 1.72,-0.26 2.47,-0.62c0.77,-0.36 1.39,-1.25 1.91,-1.84c0.63,-0.72 1.71,-0.86 2.14,-1.71c0.35,-0.69 0.05,-1.67 0.25,-2.52c0.21,-0.89 0.85,-1.58 0.91,-2.48c0.05,-0.8 0.29,-1.77 -0.07,-2.6c-0.38,-0.87 -1.32,-1.1 -2.33,-1.32c-0.63,-0.14 -1.38,-0.21 -2.57,-0.65c-0.71,-0.27 -1.45,-0.63 -2.23,-0.95c-1.19,-0.48 -1.6,-0.6 -2.41,-0.86c-0.82,-0.26 -1.68,-0.5 -3.01,-0.95c-0.47,-0.16 -1.42,-0.5 -1.92,-0.66c-1.02,-0.32 -1.53,-0.51 -3.18,-0.78c-0.56,-0.09 -1.13,-0.14 -2.26,-0.22c-0.56,-0.04 -1.65,-0.08 -2.69,-0.19c-0.96,-0.1 -1.86,-0.26 -2.71,-0.44c-0.82,-0.18 -2.02,-0.49 -2.42,-0.59c-0.81,-0.2 -1.63,-0.4 -2.48,-0.6c-1.33,-0.31 -2.26,-0.5 -2.72,-0.59c-0.9,-0.18 -1.74,-0.35 -2.83,-0.49c-0.88,-0.11 -1.67,-0.15 -2.81,-0.34c-0.67,-0.12 -1.4,-0.29 -2.17,-0.43c-1.19,-0.21 -1.99,-0.28 -2.78,-0.32c-0.77,-0.04 -1.53,-0.04 -2.93,-0.04c-0.66,0 -1.64,0 -2.65,0c-0.71,0 -1.79,0 -2.47,0c-1.1,0 -1.96,0.01 -2.77,-0.43c-0.83,-0.44 -1.75,-0.6 -2.24,-1.28c-0.52,-0.71 -0.36,-1.78 -0.36,-2.47c0,-1.07 0,-1.93 0,-2.83l0,-0.8" fill="none" id="svg_21" transform="matrix(1 0 0 1 0 0)"/>
  <ellipse cx="507.86" cy="382.8" fill="#ffffff" id="svg_23" rx="24" ry="11.5" transform="matrix(1 0 0 1 0 0) matrix(0.996195 -0.0871557 0.0871557 0.996195 -31.4093 45.2943)"/>
  <ellipse cx="544.09" cy="403.59" fill="#ffffff" id="svg_24" rx="24" ry="11.5" transform="matrix(1 0 0 1 0 0) matrix(0.656059 0.75471 -0.75471 0.656059 492.339 -277.839)"/>
 </g>
</svg>