<?xml version="1.0" standalone="no"?><!DOCTYPE svg PUBLIC "-//W3C//DTD SVG 1.1//EN" "http://www.w3.org/Graphics/SVG/1.1/DTD/svg11.dtd"><svg t="1753156238571" class="icon" viewBox="0 0 1024 1024" version="1.1" xmlns="http://www.w3.org/2000/svg" p-id="14639" xmlns:xlink="http://www.w3.org/1999/xlink" width="200" height="200"><path d="M512 898.8c57.8 0 112.8-11.4 162.6-31.8 1.2-0.6 2.2-1 3.4-1.4 0.2 0 0.4 0 0.4-0.2 7-2.6 14.6-4 22.4-4 8.6 0 16.8 1.6 24.2 4.8l168 61.8-44.2-176.8c0-10.6 3-20.6 7.8-29.2 1.6-2.6 3.2-5.2 5-7.4 41.8-62.6 66-137 66-216.8C928 275.8 741.8 96 512 96S96 275.8 96 497.4c0 221.8 186.2 401.4 416 401.4zM704 448c35.4 0 64 28.6 64 64s-28.6 64-64 64-64-28.6-64-64 28.6-64 64-64z m-192 0c35.4 0 64 28.6 64 64s-28.6 64-64 64-64-28.6-64-64 28.6-64 64-64z m-192 0c35.4 0 64 28.6 64 64s-28.6 64-64 64-64-28.6-64-64 28.6-64 64-64z" p-id="14640" fill="#1296db"></path></svg>