<?xml version="1.0" standalone="no"?><!DOCTYPE svg PUBLIC "-//W3C//DTD SVG 1.1//EN" "http://www.w3.org/Graphics/SVG/1.1/DTD/svg11.dtd"><svg t="1753363451196" class="icon" viewBox="0 0 1024 1024" version="1.1" xmlns="http://www.w3.org/2000/svg" p-id="16701" xmlns:xlink="http://www.w3.org/1999/xlink" width="200" height="200"><path d="M916.333714 960.199924H465.042286a173.494857 173.494857 0 0 0 61.479009-36.795734c-9.849905-56.56381-59.099429-99.57181-118.393905-99.571809-59.294476 0-108.641524 42.910476-118.393904 99.474286a173.065752 173.065752 0 0 0 61.508266 36.893257h-250.538666a9.752381 9.752381 0 1 0 0 19.504762h815.650133a9.752381 9.752381 0 1 0 0-19.504762zM59.947886 960.199924H44.207543a9.752381 9.752381 0 1 0 0 19.504762h15.740343a9.752381 9.752381 0 1 0 0-19.504762zM979.792457 960.199924h-25.161143a9.752381 9.752381 0 1 0 0 19.504762h25.161143a9.752381 9.752381 0 1 0 0-19.504762zM752.532724 517.919695h-120.05181c-10.630095 24.478476-34.913524 41.642667-63.195428 41.642667h-172.714667v43.495619c3.803429-0.292571 7.606857-0.390095 11.50781-0.390095 61.244952 0 115.858286 28.574476 151.259428 73.240381h101.034667l101.13219 64.365714c6.436571 4.096 14.238476-2.633143 11.215238-9.654857l-24.283428-54.710857h58.221714c22.040381 0 39.984762-17.944381 39.984762-39.984762v-255.512381c0-22.040381-17.944381-39.984762-39.984762-39.984762h-168.618667v69.924571h114.492953c5.36381 0 9.752381 4.388571 9.752381 9.752381 0 5.461333-4.388571 9.752381-9.752381 9.752381h-114.492953v60.952381c0 2.535619-0.195048 5.071238-0.487619 7.606857h114.980572c5.36381 0 9.752381 4.388571 9.752381 9.752381s-4.388571 9.752381-9.752381 9.752381z m0 87.966476h-130.974476c-5.36381 0-9.752381-4.291048-9.752381-9.752381 0-5.36381 4.388571-9.752381 9.752381-9.75238h130.974476c5.36381 0 9.752381 4.388571 9.752381 9.75238 0 5.461333-4.388571 9.752381-9.752381 9.752381z" p-id="16702" fill="#1296db"></path><path d="M184.124952 540.038095l-32.251123 73.191619c-3.081752 6.992457 4.778667 13.750857 11.234742 9.635353l129.852953-82.826972h276.304457a49.230019 49.230019 0 0 0 49.230019-49.230019V93.661867a49.3568 49.3568 0 0 0-49.366552-49.366553l-177.980953 31.909791-71.592228 12.824381-207.033296 37.088304a49.3568 49.3568 0 0 0-49.366552 49.376305v315.177448a49.366552 49.366552 0 0 0 49.366552 49.366552h71.601981z m318.317715-197.163885H181.6576a9.752381 9.752381 0 1 1 0-19.504762H502.442667a9.752381 9.752381 0 1 1 0 19.504762zM179.23901 214.776686h323.193904a9.752381 9.752381 0 1 1 0 19.504762H179.248762a9.752381 9.752381 0 1 1 0-19.504762z m0 217.195276h161.596952a9.752381 9.752381 0 1 1 0 19.504762H179.248762a9.752381 9.752381 0 1 1 0-19.504762zM408.078629 622.172648c-96.060952 0-173.982476 77.824-173.982477 173.884952 0 41.935238 14.823619 80.262095 39.497143 110.201905a139.332267 139.332267 0 0 1 134.485334-101.912381c63.292952 0 117.808762 42.130286 134.485333 101.912381 24.380952-29.744762 39.399619-68.071619 39.399619-110.201905 0-96.060952-77.824-173.884952-173.884952-173.884952z m0 166.570666c-35.888762 0-65.048381-29.159619-65.048381-65.048381s29.159619-65.048381 65.048381-65.048381 65.048381 29.159619 65.048381 65.048381-29.159619 65.048381-65.048381 65.048381z" p-id="16703" fill="#1296db"></path><path d="M363.151912 730.994906a45.514362 45.514362 0 1 0 89.853433-14.580441 45.514362 45.514362 0 1 0-89.853433 14.580441Z" p-id="16704" fill="#1296db"></path></svg>