<?xml version="1.0" standalone="no"?><!DOCTYPE svg PUBLIC "-//W3C//DTD SVG 1.1//EN" "http://www.w3.org/Graphics/SVG/1.1/DTD/svg11.dtd"><svg t="1753368184590" class="icon" viewBox="0 0 1024 1024" version="1.1" xmlns="http://www.w3.org/2000/svg" p-id="42091" xmlns:xlink="http://www.w3.org/1999/xlink" width="200" height="200"><path d="M512 62.2C229.2 62.2 1.8 248.38 1.8 478.2c0 99.18 42.76 188.2 113.94 261.4-25 100.78-108.62 190.6-109.62 191.6-4.374 4.594-5.562 11.406-3 17.406 2.624 6 8.25 9.594 14.624 9.594 132.62 0 232-63.6 281.2-102.82 65.44 24.62 138.02 38.82 214.8 38.82 282.8 0 510.2-186.18 510.2-414.2S794.8 62.2 512 62.2z m-81.8 611.6a28 28 0 0 1-14.312 7.656l-111.1 22.22c-9.796 1.96-18.43-6.68-16.468-16.468l22.22-111.08a27.982 27.982 0 0 1 7.664-14.312l195.22-195.22 112 112.02L430.2 673.8z m289.4-289.4l-48.96 48.96-112-112.02 48.96-48.96c21.88-21.86 57.32-21.86 79.2 0l32.82 32.82c21.78 22 21.78 57.4-0.02 79.2z" p-id="42092" data-spm-anchor-id="a313x.search_index.0.i8.60273a81OI1I58" class="selected" fill="#1296db"></path></svg>