<?xml version="1.0" standalone="no"?><!DOCTYPE svg PUBLIC "-//W3C//DTD SVG 1.1//EN" "http://www.w3.org/Graphics/SVG/1.1/DTD/svg11.dtd"><svg t="1756192834431" class="icon" viewBox="0 0 1024 1024" version="1.1" xmlns="http://www.w3.org/2000/svg" p-id="34206" data-spm-anchor-id="a313x.search_index.0.i28.f0583a81zuhXvj" xmlns:xlink="http://www.w3.org/1999/xlink" width="256" height="256"><path d="M810.24 47.872c-35.072 15.872-75.264 16.128-109.568 0.512C567.808-6.912 418.048-2.304 288.768 60.416 159.744 123.136 63.744 238.08 25.344 376.064c-29.952 109.056-22.528 225.024 21.248 328.704 15.872 35.072 15.872 75.008-0.256 110.336-43.776 89.856-48.896 151.04-17.664 181.504 14.848 14.08 34.56 21.248 54.784 19.968 43.776-3.072 86.272-15.616 126.208-37.376 37.632-16.64 80.896-16.896 118.016-0.256 137.472 55.808 293.12 46.848 422.4-24.064 141.312-87.296 237.568-231.424 263.424-393.984 7.68-79.616-4.608-159.744-35.328-232.96-16.128-36.608-16.128-78.336 0.256-115.456 44.032-92.928 49.152-154.624 18.688-185.344-31.488-31.744-96.256-25.6-186.88 20.736z m-107.264 874.752z m5.376 11.52c-107.008 48.384-227.072 55.808-341.504 20.992-13.824-7.936-21.504-21.248-21.504-35.84 0-14.336 7.424-27.648 18.432-34.048 99.328-73.216 192.256-154.368 278.784-242.688 88.32-86.784 169.472-180.736 241.92-279.296 7.424-12.544 20.736-19.968 35.072-19.968 15.104 0 28.16 8.192 36.608 23.04 72.704 225.536-33.792 468.48-247.808 567.808z m-452.608-22.272c-102.4 62.208-180.736 84.224-206.592 58.368-20.736-20.48-12.032-68.096 23.808-142.592 19.712-43.52 19.712-93.44-0.256-137.728C34.048 595.712 27.392 491.52 53.76 393.472c33.792-131.584 123.648-242.176 245.76-302.592 122.112-60.416 264.704-64.512 390.656-11.52 44.544 20.224 96 20.48 139.264 0.768 54.016-29.44 97.536-41.472 127.744-37.376 2.048 0.256 3.584 0.512 5.376 1.024l11.52 3.328 2.816 11.776c0.256 1.536 0.768 3.584 1.024 5.888 5.632 46.08-15.36 112.64-65.024 194.048l-38.4 62.976v-7.168c-75.008 109.312-160.768 210.688-255.744 303.104-108.8 111.616-230.656 210.176-363.008 294.144z" fill="#11f7f5" p-id="34207" data-spm-anchor-id="a313x.search_index.0.i29.f0583a81zuhXvj" class=""></path><path d="M683.776 332.8c-0.768 110.848-91.136 199.936-201.984 199.68-111.104-0.512-200.704-90.368-200.448-201.216s90.368-200.448 201.216-200.448h8.96l1.28 2.56c105.728 5.12 190.208 92.16 190.976 199.424z m-374.016-1.536c-0.256 94.976 76.8 172.032 172.032 172.544 95.232 0.256 172.8-76.288 173.312-171.008-0.512-94.208-77.056-170.496-171.52-171.008h-8.704l-1.024-2.048c-91.392 4.352-163.84 79.616-164.096 171.52z" fill="#ccad03" p-id="34208" data-spm-anchor-id="a313x.search_index.0.i34.f0583a81zuhXvj" class=""></path><path d="M627.712 813.824c0 12.544 10.24 22.528 22.528 22.528s22.528-9.984 22.528-22.016c-0.256-11.776-9.984-21.504-22.016-21.76l-2.304-1.024c-11.52 0.768-20.736 10.496-20.736 22.272zM197.888 636.416c0 33.28 27.136 60.416 60.672 60.416s60.672-27.136 60.672-60.16c-0.512-32.768-26.88-59.136-59.648-59.648h-5.888l-0.768-0.768c-30.976 2.816-55.04 28.672-55.04 60.16z" fill="#cc03b8" p-id="34209" data-spm-anchor-id="a313x.search_index.0.i30.f0583a81zuhXvj" class=""></path><path d="M627.712 813.824c0 12.544 10.24 22.528 22.528 22.528s22.528-9.984 22.528-22.016c-0.256-11.776-9.984-21.504-22.016-21.76l-2.304-1.024c-11.52 0.768-20.736 10.496-20.736 22.272z m69.12 0.512c0 25.344-20.992 46.08-46.592 46.08s-46.592-20.736-46.592-46.336c0-24.32 18.688-44.544 43.008-46.336l5.888-0.512 4.352 1.792c22.272 3.328 39.168 21.76 39.936 45.312zM197.888 636.416c0 33.28 27.136 60.416 60.672 60.416s60.672-27.136 60.672-60.16c-0.512-32.768-26.88-59.136-59.648-59.648h-5.888l-0.768-0.768c-30.976 2.816-55.04 28.672-55.04 60.16z m69.376-90.88c46.592 4.352 82.944 43.008 83.712 91.136 0 50.944-41.472 92.16-92.416 92.16-51.2 0-92.416-41.216-92.416-92.416 0-47.872 36.608-87.552 83.968-91.904l14.848-1.28 2.304 2.304z" fill="#f27fe6" p-id="34210" data-spm-anchor-id="a313x.search_index.0.i31.f0583a81zuhXvj" class=""></path></svg>