<?xml version="1.0" standalone="no"?><!DOCTYPE svg PUBLIC "-//W3C//DTD SVG 1.1//EN" "http://www.w3.org/Graphics/SVG/1.1/DTD/svg11.dtd"><svg t="1757324197966" class="icon" viewBox="0 0 1024 1024" version="1.1" xmlns="http://www.w3.org/2000/svg" p-id="14326" xmlns:xlink="http://www.w3.org/1999/xlink" width="64" height="64"><path d="M855.42342089 55.6464879L170.04773372 54.54494418C106.96926139 54.44395169 55.75268564 105.49706593 55.65169315 168.5744964l-1.10466728 685.37568717c-0.10099249 63.07743148 50.95212175 114.29400623 114.02955222 114.39916312l685.37568717 1.10466727c63.07743148 0.10099249 114.29400623-50.95212175 114.39916311-114.02955222l1.10154372-685.37985157C969.55708916 106.96821953 918.50085238 55.7474804 855.42342089 55.6464879zM635.40516806 195.65081484c17.04061046 0 30.85363468 13.81302422 30.85363468 30.85051112s-13.81302422 30.85051113-30.85363468 30.85051113c-17.03748691 0-30.85051113-13.81302422-30.85051113-30.85051113S618.36768115 195.65081484 635.40516806 195.65081484zM512 164.79613931c17.04061046 0 30.85051113 13.81302422 30.85051113 30.85363468 0 17.03748691-13.80990067 30.85051113-30.85051113 30.85051113-17.03748691 0-30.85051113-13.81302422-30.85051113-30.85051113C481.14948887 178.60916454 494.96251309 164.79613931 512 164.79613931zM388.59379109 195.65081484c17.03748691 0 30.85051113 13.81302422 30.85051113 30.85051112s-13.81302422 30.85051113-30.85051113 30.85051113c-17.03748691 0-30.85051113-13.81302422-30.85051112-30.85051113S371.55734605 195.65081484 388.59379109 195.65081484zM296.03913416 349.90649402c-17.03748691 0-30.85051113-13.81302422-30.85051113-30.85051112 0-17.04061046 13.81302422-30.85051113 30.85051113-30.85051113 17.04061046 0 30.85051113 13.80990067 30.85051113 30.85051113C326.88964529 336.09346981 313.07974462 349.90649402 296.03913416 349.90649402zM576.25185572 786.53321265l-102.96622291 47.19042226c-3.10576973 1.4461662-6.38853704 2.10834205-9.64110967 2.10834205-8.73842738 0-17.14576634-5.00171631-21.03136302-13.49963625-5.33280373-11.59952527-0.24050745-25.33654541 11.39025335-30.66935016l102.96622291-47.19042226c11.3871298-5.36403926 25.33654541-0.27174196 30.66935016 11.3871298C592.97283112 767.46026421 587.88053381 781.2004079 576.25185572 786.53321265zM582.98293355 717.45663719l-123.40516806 53.99125806c-3.01518976 1.29623974-6.17614055 1.92718109-9.27878774 1.92718109-8.88835384 0-17.38627378-5.18287728-21.21252399-13.85883565-5.12040826-11.72238162 0.24050745-25.36778094 11.9306137-30.49131172l123.40516806-53.98709266c11.59952527-5.06418533 25.30843446 0.20927294 30.49131174 11.93061371C600.0339545 698.68666622 594.67303982 712.33622893 582.98293355 717.45663719zM644.4153374 555.54637488c0.09058099 0-9.37249127 12.14405003-26.4828587 24.25270216-0.5122494 0.42479196-19.34468938 14.94580245-15.9984122 40.13242243 1.35558622 10.12212457-4.09903403 19.91628424-13.40905628 24.13401022l-128.70673728 58.14547214c-3.07453522 1.38682073-6.32606701 2.05003743-9.51929519 2.05003743-8.79777285 0-17.23634733-5.06106178-21.09070951-13.6183282-5.27345826-11.62763725-0.09058099-25.33654541 11.56829076-30.61000368l48.25031996-21.79140782c-0.0104115-0.28215345-0.16346151-0.51953736-0.16346151-0.80481436L488.86341848 429.82255098l-38.56444073 0c-12.77499138 0-23.14074694-10.36575557-23.14074694-23.14074694s10.36575557-23.13658152 23.14074694-23.13658153L573.7041458 383.54522251c12.77499138 0 23.13658152 10.36263202 23.13658153 23.13658153s-10.36263202 23.14074694-23.13658153 23.14074694l-38.56444073 0L535.13970507 617.41085864l20.3035946-9.17050729c2.08127195-33.10877964 22.29741012-56.580614 35.67419003-66.1311437 11.3871298-8.07208713 17.65385134-16.02652316 17.71319681-16.08899321 22.47857108-25.30843446 34.28736929-56.27763754 34.28736929-88.48789928 0-72.30728425-58.8118124-131.11909665-131.11909665-131.11909663s-131.11909665 58.8118124-131.11909664 131.11909663c0 41.66916961 19.13229391 79.93063286 52.5128155 104.96732537 7.65458312 6.1480296 42.75405472 36.18643841 39.95126044 70.44257319-1.02449779 12.74271603-12.23046662 22.2620102-24.914877 21.17816593-12.74688041-1.02449779-22.23806363-12.17112014-21.18128948-24.91487701 0.48101388-6.23548704-11.80879821-21.78516072-22.23389924-30.16022431-44.53130835-33.38156244-70.41133868-85.1416221-70.41133869-141.51296317 0-97.82499164 79.57143449-177.39642511 177.39642511-177.3964251 97.82915604 0 177.39642511 79.57143449 177.39642512 177.3964251C689.39642511 481.0984722 673.42924741 523.04042461 644.4153374 555.54637488zM727.96086584 349.90649402c-17.03748691 0-30.85051113-13.81302422-30.85051113-30.85051112 0-17.04061046 13.81302422-30.85051113 30.85051113-30.85051113 17.03748691 0 30.85051113 13.80990067 30.85051113 30.85051113C758.81137697 336.09346981 744.99731089 349.90649402 727.96086584 349.90649402z" fill="#00b358" p-id="14327"></path></svg>