<svg version="1.0" xmlns="http://www.w3.org/2000/svg" width="800.000000" height="800.000000" viewBox="0 0 800.000000 800.000000" preserveAspectRatio="xMidYMid meet">
  <metadata>
    <rdf:RDF xmlns:rdf="http://www.w3.org/1999/02/22-rdf-syntax-ns#" xmlns:rdfs="http://www.w3.org/2000/01/rdf-schema#" xmlns:dc="http://purl.org/dc/elements/1.1/">
      <rdf:Description dc:format="image/svg+xml" dc:Label="1" dc:ContentProducer="001191330110MACRLGPT8B00000" dc:ProduceID="330240805" dc:ReservedCode1="VxS7oI4YvMnvCBK77eM3G3dSrfUgV0vzFaC9JCozfZk=" dc:ContentPropagator="001191330110MACRLGPT8B00000" dc:PropagateID="330240805" dc:ReservedCode2="VxS7oI4YvMnvCBK77eM3G3dSrfUgV0vzFaC9JCozfZk="/>
    </rdf:RDF>
  </metadata>
  <g transform="translate(0.000000,800.000000) scale(0.100000,-0.100000)" fill="blue" stroke="none">
    <path d="M3589 6356 c-2 -3 -51 -9 -109 -16 -699 -73 -1310 -430 -1637 -955 -153 -245 -247 -523 -284 -840 -18 -148 -22 -275 -10 -315 5 -19 17 -92 26 -163 19 -150 60 -317 110 -454 76 -205 225 -476 341 -619 l33 -42 -18 -38 c-11 -22 -80 -176 -154 -344 -343 -778 -330 -744 -308 -812 21 -62 100 -118 168 -118 13 0 95 29 181 64 643 264 945 386 966 392 18 4 60 -9 145 -46 243 -104 474 -171 735 -212 117 -18 183 -22 381 -23 371 0 649 50 971 178 78 31 116 41 130 35 10 -4 232 -93 493 -198 351 -141 484 -190 515 -190 85 1 165 79 166 162 0 23 -26 104 -69 210 -37 95 -117 297 -176 450 l-107 276 68 108 c148 237 243 501 291 814 56 362 -33 825 -235 1224 -195 386 -500 731 -862 975 -419 282 -835 431 -1358 485 -140 15 -383 22 -393 12z m496 -391 c198 -31 389 -83 572 -155 316 -127 562 -289 809 -535 270 -268 435 -537 537 -875 57 -187 71 -290 72 -500 0 -215 -15 -318 -76 -504 -51 -157 -123 -299 -209 -416 -84 -114 -92 -129 -97 -201 -5 -50 1 -71 62 -225 37 -93 78 -196 90 -229 13 -33 32 -84 44 -112 l21 -53 -53 21 c-28 11 -168 67 -310 125 -310 125 -308 124 -465 60 -342 -140 -623 -192 -985 -183 -376 9 -654 78 -1026 254 -149 70 -148 70 -491 -72 -157 -65 -325 -135 -375 -156 -49 -20 -91 -36 -92 -35 -2 1 74 175 168 386 163 364 171 385 166 431 -7 60 -21 87 -87 169 -214 264 -349 559 -417 905 -24 127 -25 454 0 580 99 510 404 902 882 1135 223 109 482 181 735 204 91 8 428 -4 525 -19z"/>
    <path d="M3695 5435 c-272 -42 -504 -154 -676 -324 -220 -220 -330 -499 -316 -804 9 -185 47 -311 147 -477 l40 -66 -35 -184 c-20 -103 -33 -197 -29 -213 7 -34 47 -83 85 -102 54 -28 99 -19 303 65 l196 80 562 0 563 0 199 -80 c208 -83 252 -93 305 -65 40 20 79 70 86 108 3 18 -10 116 -28 219 l-33 188 30 47 c94 152 144 310 153 485 15 294 -88 551 -306 768 -175 173 -392 285 -667 341 -131 27 -448 35 -579 14z m500 -301 c452 -84 755 -393 755 -770 0 -155 -37 -272 -133 -418 -48 -74 -52 -84 -52 -140 0 -34 4 -87 9 -118 l8 -57 -88 37 -89 37 -617 3 -617 3 -95 -36 c-51 -19 -96 -35 -99 -35 -2 0 2 36 11 81 18 98 10 130 -47 207 -56 74 -97 163 -122 261 -31 124 -24 282 18 404 111 318 386 516 773 557 105 11 279 4 385 -16z"/>
    <path d="M3345 4487 c-54 -30 -77 -77 -72 -145 3 -43 10 -59 38 -88 18 -19 50 -40 71 -46 105 -31 216 77 188 183 -28 103 -133 148 -225 96z"/>
    <path d="M3780 4491 c-42 -22 -77 -70 -86 -117 -9 -50 30 -123 81 -152 40 -22 41 -22 447 -20 395 3 407 4 435 24 100 74 97 206 -7 261 -43 23 -46 23 -439 23 -367 0 -399 -1 -431 -19z"/>
  </g>
</svg>