<?xml version="1.0" standalone="no"?><!DOCTYPE svg PUBLIC "-//W3C//DTD SVG 1.1//EN" "http://www.w3.org/Graphics/SVG/1.1/DTD/svg11.dtd"><svg t="1753169987622" class="icon" viewBox="0 0 1024 1024" version="1.1" xmlns="http://www.w3.org/2000/svg" p-id="3946" xmlns:xlink="http://www.w3.org/1999/xlink" width="200" height="200"><path d="M361.543 340.173c7.749-9.782 16.29-18.873 25.627-27.008l-46.265-46.287c-7.264-7.286-19.05-7.286-26.343 0-7.264 7.267-7.264 19.054 0 26.317l46.981 46.978z m150.462-74.419h0.537c6.111 0 12.146 0.383 18.08 0.999v-63.036c0-10.279-8.338-18.618-18.618-18.618-10.283 0-18.594 8.335-18.594 18.618v63.022c5.934-0.599 11.966-0.986 18.08-0.986h0.515z m150.508 74.396l46.929-46.956c7.287-7.264 7.287-19.05 0-26.314-7.24-7.29-19.053-7.29-26.343 0l-46.29 46.287c9.36 8.131 17.903 17.213 25.705 26.979v0.004z m-346.7 132.017c0-8.989 0.717-17.785 1.768-26.481h-66.189c-10.254 0-18.592 8.338-18.592 18.615 0 10.283 8.338 18.618 18.592 18.618h64.653c-0.154-3.54-0.232-7.097-0.232-10.755v0.003z m456.792-26.481h-66.159c1.074 8.696 1.765 17.495 1.765 26.481 0 3.659-0.075 7.215-0.203 10.755h64.598c10.283 0 18.595-8.334 18.595-18.618 0-10.279-8.312-18.614-18.595-18.614v-0.004zM672.304 598.284c-7.568 11.098-15.572 20.684-23.268 29.356l34.062 34.092c7.291 7.264 19.103 7.264 26.343 0 7.287-7.29 7.287-19.05 0-26.343l-37.137-37.105z m-357.743 37.104c-7.264 7.29-7.264 19.05 0 26.343 7.29 7.264 19.08 7.264 26.34 0l34.092-34.115c-7.695-8.645-15.699-18.257-23.271-29.33l-37.158 37.105-0.003-0.003z m367.82-163.221c0.023-38.605-12.838-74.304-34.501-102.894-19.001-25.112-44.808-44.804-74.701-56.365l0.154-0.818-12.763-3.747a173.588 173.588 0 0 0-30.587-5.947l-1.484-0.167h-0.049l-0.052-0.01c-5.112-0.488-10.434-0.858-15.982-0.858h-0.818c-5.551 0-10.87 0.373-15.985 0.858l-0.075 0.01-1.536 0.167a173.067 173.067 0 0 0-30.549 5.947l-12.353 3.602 0.127 0.822c-30.047 11.544-56.008 31.289-75.11 56.502-21.637 28.59-34.501 64.29-34.501 102.894 0 27.683 4.785 50.441 12.225 69.277 11.174 28.246 28.233 47.323 41.941 61.797 6.855 7.212 12.89 13.375 16.98 18.641 4.195 5.292 6.212 9.386 6.802 12.634 2.991 15.804 3.298 35.752 3.298 40.815v1.458c0 22.862 18.516 41.326 41.352 41.352h95.581c22.865-0.026 41.355-18.516 41.355-41.352v-1.405c-0.023-5.013 0.308-25.014 3.301-40.841 0.406-2.201 1.378-4.706 3.297-7.774 3.272-5.345 9.461-11.996 17.135-20 11.456-12.045 26.032-27.234 37.619-48.832 11.612-21.568 19.921-49.435 19.872-85.77l0.007 0.004zM529.958 302.4h0.056-0.056z m-35.955 0h0.049-0.049z m65.416 427.046h-94.815c-9.795 0-17.773 7.929-17.773 17.8 0 9.769 7.98 17.75 17.773 17.75h94.815c9.796 0 17.773-7.981 17.773-17.75 0-9.874-7.981-17.8-17.773-17.8z m0 44.857h-94.815c-9.795 0-17.773 7.952-17.773 17.75 0 9.844 7.98 17.8 17.773 17.8h94.815c9.796 0 17.773-7.952 17.773-17.8 0-9.796-7.981-17.75-17.773-17.75z m-39.103 45.213h-48.829c0 0.537-0.105 1.048-0.105 1.611 0 9.822 15.091 17.773 29.042 17.773h23.169c13.961 0 29.026-7.951 29.026-17.773 0-0.56-0.079-1.071-0.079-1.611h-32.224z m0 0" fill="#FFFFFF" p-id="3947"></path><path d="M456.342 65h111.315C783.79 65 959 240.21 959 456.342v111.315C959 783.79 783.79 959 567.658 959H456.342C240.21 959 65 783.79 65 567.658V456.342C65 240.21 240.21 65 456.342 65z" fill="#6E78F4" p-id="3948"></path><path d="M494.434 486.823c-13.854 1.085-21.846 9.057-23.975 23.847h47.138c-2.676-15.339-10.386-23.315-23.163-23.847z m17.395-240.791c-148.976 0-265.699 119.092-265.699 271.102 0 9.389 1.77 37.23 5.033 53.283h-0.055c0.075 0.341 0.177 0.624 0.25 0.945a63.311 63.311 0 0 0 1.274 4.929 455.281 455.281 0 0 0 3.533 12.993l0.795 2.986c0.092 0.624 0.441 1.153 0.609 1.774 17.104 55.81 38.064 76.626 38.064 76.626l0.042 0.019c0.055 0.64 0.075 1.322 0.194 1.907 1.076 12.749 3.97 46.596-10.347 76.265-1.158 2.778-1.733 5.725-1.714 8.444-0.753 4.512 0.284 9.064 2.97 12.843 2.873 4.021 7.199 6.706 12.119 7.534 0.696 0.132 1.411 0.192 2.006 0.227 0.522 0.039 1.027 0.059 1.53 0.059 1.986 0 3.918-0.361 5.378-0.929 17.103-3.587 54.802-20.056 75.817-34.676 39.149 21.514 83.439 32.921 128.205 32.921 146.693 0 266.037-118.725 266.037-264.627 0-145.919-119.345-264.625-266.041-264.625z m-80.518 314.846c-1.073 10.429-6.126 15.621-15.171 15.621-9.049 0-13.855-5.192-14.367-15.621V508.19c-1.091-13.142-7.479-20.283-19.182-21.368-12.253 1.085-18.654 8.226-19.151 21.368v52.688c-0.549 10.429-5.354 15.621-14.382 15.621-9.594 0-14.673-5.192-15.188-15.621V480.23c0-10.426 5.06-16.163 15.188-17.288 7.428 0.553 11.971 4.409 13.573 11.528 5.303-8.243 14.641-12.343 27.951-12.343 25.559 1.645 39.127 15.099 40.73 40.326v58.425z m67.912-8.236c5.878 0 13.041-2.456 21.576-7.405 5.318-3.281 9.292-4.945 11.968-4.945 6.92 1.115 10.896 5.494 11.988 13.184-3.733 14.256-19.712 22.209-47.928 23.831-35.155-1.076-53.513-19.981-55.131-56.771 2.659-35.621 20.241-55.125 52.737-58.41 30.892 3.285 48.44 21.681 52.716 55.125 0 9.331-4.275 13.73-12.76 13.161h-63.14c2.677 14.28 11.989 21.684 27.974 22.23z m178.922 9.88c-3.71 9.327-9.594 13.996-17.549 13.996-9.081 0-14.68-4.403-16.773-13.184l-15.191-48.539h-0.811l-15.174 48.539c-2.674 8.781-8.256 13.184-16.774 13.184-8.521 0-14.381-4.669-17.585-13.996L553.521 490.1c-1.602-2.745-2.659-5.201-3.183-7.405-0.53-2.729-0.53-5.204 0-7.411 0.524-7.683 5.332-11.781 14.377-12.332 7.464 0.552 12.252 4.65 14.381 12.332l16.776 57.623 17.568-56.794c2.149-8.752 7.199-13.161 15.191-13.161 6.898 0 11.684 4.409 14.382 13.161l17.582 56.794 17.549-57.623c1.602-7.683 6.146-11.781 13.591-12.332 9.064 0.552 13.833 5.484 14.381 14.806 0 3.294-0.794 7.141-2.396 11.511l-25.575 73.253z" fill="#FFFFFF" p-id="3949"></path></svg>