<?xml version="1.0" standalone="no"?><!DOCTYPE svg PUBLIC "-//W3C//DTD SVG 1.1//EN" "http://www.w3.org/Graphics/SVG/1.1/DTD/svg11.dtd"><svg t="1753089110048" class="icon" viewBox="0 0 1024 1024" version="1.1" xmlns="http://www.w3.org/2000/svg" p-id="20227" xmlns:xlink="http://www.w3.org/1999/xlink" width="200" height="200"><path d="M844.8 889.6c-153.6 0-217.6-70.4-249.6-140.8C736 691.2 832 512 832 352c0-192-140.8-352-320-352S192 160 192 352c0 160 96 339.2 236.8 396.8-25.6 64-96 140.8-249.6 140.8C0 896 0 1024 0 1024h1024s0-128-179.2-134.4zM320 352C320 230.4 403.2 128 512 128s192 102.4 192 224C704 486.4 601.6 640 512 640S320 486.4 320 352z" fill="#108CEE" p-id="20228"></path></svg>