<?xml version="1.0" standalone="no"?><!DOCTYPE svg PUBLIC "-//W3C//DTD SVG 1.1//EN" "http://www.w3.org/Graphics/SVG/1.1/DTD/svg11.dtd"><svg t="1753089211568" class="icon" viewBox="0 0 1024 1024" version="1.1" xmlns="http://www.w3.org/2000/svg" p-id="29638" xmlns:xlink="http://www.w3.org/1999/xlink" width="200" height="200"><path d="M959.912003 218.162365a72.571464 72.571464 0 0 0-56.892444-63.932004 1331.628773 1331.628773 0 0 1-183.9885-42.813325A681.877383 681.877383 0 0 1 554.561338 14.335104a74.55534 74.55534 0 0 0-87.802512 0A430.181114 430.181114 0 0 1 301.073181 110.71308 612.441722 612.441722 0 0 1 122.20436 155.510281c-31.35804 5.11968-54.908568 31.806012-56.31648 63.932004C65.88788 219.442285 63.968 379.816261 63.968 520.927442 63.968 776.591463 362.381349 1023.936004 511.620022 1023.936004s402.150866-174.453097 442.596337-499.04081c10.111368-191.732017 3.135804-306.092869 3.135804-306.092869l2.55984-0.63996z m-162.54984 197.427661l-311.660521 297.133429a41.981376 41.981376 0 0 1-51.836761 5.11968l-8.191488-7.03956-172.021248-180.788701a43.709268 43.709268 0 0 1 2.55984-61.372164 42.621336 42.621336 0 0 1 60.668208 2.55984l141.623149 150.134616 280.750453-268.335229a42.621336 42.621336 0 0 1 41.91738-9.535404 43.709268 43.709268 0 0 1 16.254984 73.403413v-1.27992z" fill="#0077CD" p-id="29639"></path></svg>