<?xml version="1.0" standalone="no"?><!DOCTYPE svg PUBLIC "-//W3C//DTD SVG 1.1//EN" "http://www.w3.org/Graphics/SVG/1.1/DTD/svg11.dtd"><svg t="1756360892451" class="icon" viewBox="0 0 1024 1024" version="1.1" xmlns="http://www.w3.org/2000/svg" p-id="28093" xmlns:xlink="http://www.w3.org/1999/xlink" width="256" height="256"><path d="M947.097343 563.846034c-20.147895-108.913167-64.070652-186.138086-116.392704-241.080579l3.349305 10.898258-700.091616 97.025736c-18.30838 38.143904-33.111269 82.066661-42.551798 133.139231-19.401676 104.817643 0.746218 214.424967 63.272372 300.62186 60.530454 83.420267 169.391559 162.17233 364.571034 159.46512 195.162122 2.707211 304.040581-76.027499 364.571035-159.46512 62.526154-86.179539 82.674048-195.786863 63.272372-300.604506z" fill="#FDC794" p-id="28094"></path><path d="M885.490947 532.071017c-52.738546-30.126395-112.731028-46.057289-173.469729-46.057289s-120.731183 15.930893-173.469729 46.057289l-5.935039 3.384013h-22.993936l-5.935039-3.384013c-52.738546-30.126395-112.731028-46.057289-173.469729-46.057289s-120.731183 15.930893-173.469729 46.057289l-8.746372 4.997927v10.065271c0 43.88805 0 146.709993 109.694093 158.58007 20.199956 2.186593 39.462801 3.27989 57.319979 3.27989 151.39555 0 189.244437-78.752064 196.099233-138.831316h20.009064c6.854796 60.079252 44.68633 138.831316 196.099233 138.831316h0.017354a536.235956 536.235956 0 0 0 57.302625-3.27989c109.694093-11.870077 109.694093-114.674667 109.694094-158.58007v-10.065271l-8.746373-4.997927z" fill="#556080" p-id="28095"></path><path d="M299.119532 540.539727a17.336561 17.336561 0 0 0-24.538435 0l-52.061744 52.061743a17.336561 17.336561 0 1 0 24.538435 24.538435l52.061744-52.061743a17.353914 17.353914 0 0 0 0-24.538435zM378.704583 540.539727l-86.769572 86.769572a17.336561 17.336561 0 1 0 24.538435 24.538435l86.769572-86.769572a17.336561 17.336561 0 1 0-24.538435-24.538435zM680.905649 540.539727a17.336561 17.336561 0 0 0-24.538435 0l-52.061743 52.061743a17.336561 17.336561 0 1 0 24.538435 24.538435l52.061743-52.061743a17.353914 17.353914 0 0 0 0-24.538435zM785.029136 540.539727a17.336561 17.336561 0 0 0-24.538435 0l-86.769572 86.769572a17.336561 17.336561 0 1 0 24.538435 24.538435l86.769572-86.769572a17.353914 17.353914 0 0 0 0-24.538435z" fill="#8697CB" p-id="28096"></path><path d="M772.759918 75.36805a104.331734 104.331734 0 0 0-30.803198-48.19182C722.312089 9.648776 695.534999 0 666.571316 0a133.0004 133.0004 0 0 0-54.873078 11.922139l-150.510499 68.513254a94.578834 94.578834 0 0 1-55.150741 6.976274L264.654657 62.231137a130.327897 130.327897 0 0 0-22.69892-1.9957c-60.946948 0-112.088933 40.226374-118.943729 93.520245a100.652704 100.652704 0 0 0-0.832988 11.575061l-2.325425 101.208029 682.616225-94.613542-29.709902-96.55718zM812.812753 205.522409L119.037961 301.680449l-2.967519 128.679275a17.336561 17.336561 0 0 0 19.748755 17.59687L836.466138 350.844088a17.371268 17.371268 0 0 0 14.195502-22.282426l-37.848887-123.039253z" fill="#556080" p-id="28097"></path><path d="M802.46982 171.92523L119.836241 266.538772l-0.79828 35.141677 693.774792-96.15804z" fill="#8697CB" p-id="28098"></path><path d="M87.24559 592.254392c-7.861323-7.444829-17.093606-11.922139-27.054753-11.922139-28.165403 0-51.003155 34.378105-51.003154 76.773717 0 42.395613 22.837751 76.773717 51.003154 76.773718 11.922139 0 22.750982-6.420948 31.42794-16.729174a410.767155 410.767155 0 0 1-4.373187-124.896122zM1012.643078 525.840962c-9.770254-41.250255-39.914003-69.398304-67.315834-62.855879-8.520772 2.030408-15.583815 7.462183-21.258546 14.837597a561.225593 561.225593 0 0 1 23.045999 86.023354c2.689857 14.525226 4.529372 29.137222 5.692084 43.766572 9.024036 4.928512 18.603396 6.976274 27.905094 4.754973 27.401831-6.542426 41.701456-45.276363 31.931203-86.526617zM408.310361 937.215503a17.336561 17.336561 0 0 1-13.969901-27.610077c57.458811-78.283508 164.376278-130.466729 243.406004-118.492528 40.556098 6.07387 69.675966 28.807498 81.979892 64.01859a17.353914 17.353914 0 0 1-32.764191 11.453584c-8.06957-23.132768-26.360596-36.981192-54.335106-41.163485-66.170476-9.770254-160.645186 37.067961-210.312089 104.713519-3.401367 4.616141-8.676957 7.080397-14.004609 7.080397z" fill="#F9A671" p-id="28099"></path><path d="M25.62184 463.071853a17.353914 17.353914 0 0 1-2.360132-34.53429L921.500319 304.040581a17.180375 17.180375 0 0 1 19.575216 14.802889 17.336561 17.336561 0 0 1-14.802889 19.575216l-898.238612 124.479628a16.277972 16.277972 0 0 1-2.412194 0.173539z" fill="#3D324C" p-id="28100"></path></svg>