<?xml version="1.0" standalone="no"?><!DOCTYPE svg PUBLIC "-//W3C//DTD SVG 1.1//EN" "http://www.w3.org/Graphics/SVG/1.1/DTD/svg11.dtd"><svg t="1756361632637" class="icon" viewBox="0 0 1024 1024" version="1.1" xmlns="http://www.w3.org/2000/svg" p-id="28776" xmlns:xlink="http://www.w3.org/1999/xlink" width="256" height="256"><path d="M958.918248 317.5495c-10.949983-79.246085-45.672025-132.106244-78.963505-159.551846-16.177716-13.334253-25.414557-32.708658-30.64229-53.001448-14.111349-54.785236-66.017799-84.014626-119.990618-87.688169-34.386478-2.348948-64.392963 8.548051-98.708796 22.270852-10.791031 4.309348-23.878027-0.176613-27.97544-11.05595-21.087547-56.003863-141.890583-27.286651-233.994067 66.229734-4.415316 4.485961-12.080304 2.207658-12.963366-4.026768-3.055398-21.723353-4.644912-60.896033 20.398758-73.417868 0 0-77.833184-43.78227-144.575095 14.588203-20.345774 17.802553-33.644705 42.281062-40.42663 68.437392-1.624836 6.269748-3.284995 12.963367-4.75088 19.551018-4.097413 18.244084-27.498586 24.460849-39.525905 10.119903l-0.688789-0.883063c-11.267885-13.740462-32.86761-11.603449-39.896792 4.715557C68.755295 220.765781 10.667403 415.693136 146.500172 582.468437V361.243463a213.877889 213.877889 0 0 0 88.306313-61.355226s57.399103 39.737841 194.273888 52.983788c0 0 73.594481-100.086375 264.918937-70.64505 0 0 51.517903 119.213522 194.273888 35.322525v264.918937s94.540738-92.103484 70.64505-264.918937z" fill="#5E5F62" p-id="28777"></path><path d="M693.99931 282.226975c-191.324457-29.441325-264.918938 70.64505-264.918937 70.64505-136.874784-13.245947-194.273888-52.983788-194.273888-52.983788a213.877889 213.877889 0 0 1-88.306313 61.355226V882.7099c0 38.854778 31.790273 70.64505 70.64505 70.64505h600.482926c38.854778 0 70.64505-31.790273 70.64505-70.64505v-565.1604c-142.755985 83.890997-194.273888-35.322525-194.273888-35.322525z" fill="#FFDB2B" p-id="28778"></path><path d="M714.398068 716.429113A46.095895 46.095895 0 0 1 756.626147 688.789238c25.432218 0 43.764608 21.016902 46.060573 46.060572 0 0 1.236288 6.216764-1.501208 17.414005-3.726526 15.24167-12.486513 28.787858-24.301897 39.119697l-62.503208 53.849189-61.461193-53.866851c-11.815385-10.331839-20.575371-23.878027-24.301898-39.119696-2.737496-11.19724-1.501207-17.414005-1.501207-17.414005 2.348948-25.026009 20.663677-46.042911 46.113556-46.042911 18.87989 0 34.068575 11.373853 41.168403 27.639875z" fill="#E64C3C" p-id="28779"></path><path d="M431.906175 578.494653c-4.980476 0-9.854984-2.119352-13.263609-5.987168a87.70583 87.70583 0 0 0-60.684098-29.812211 87.652846 87.652846 0 0 0-63.951431 21.882304 17.696585 17.696585 0 0 1-24.937703-1.589513 17.696585 17.696585 0 0 1 1.589514-24.937703 123.858434 123.858434 0 0 1 136.291963-18.138116c-14.058365-32.532046-46.184201-58.529424-81.206485-60.754743-9.749017-0.618144-17.131425-9.024905-16.513281-18.756261s9.183857-17.043118 18.756261-16.513281c67.925216 4.327009 125.854157 70.132873 121.544809 138.040428a17.661263 17.661263 0 0 1-17.62594 16.566264z" fill="#F0C419" p-id="28780"></path><path d="M513.165643 809.221387a60.189583 60.189583 0 0 1-38.360262-13.811108 17.62594 17.62594 0 1 1 22.51811-27.180683 24.920041 24.920041 0 0 0 40.70921-19.233114 24.884719 24.884719 0 0 0-44.100173-15.824492 17.661263 17.661263 0 1 1-27.216005-22.482787 60.01297 60.01297 0 0 1 46.44912-21.882304c33.203174 0 60.207244 27.00407 60.207244 60.207244s-27.00407 60.207244-60.207244 60.207244z" fill="#E57E25" p-id="28781"></path><path d="M482.276095 886.560055a60.171921 60.171921 0 0 1-60.260227-61.902725 17.661263 17.661263 0 0 1 17.643601-17.149086h0.529838c9.749017 0.300241 17.414005 8.424422 17.149086 18.173439-0.176613 5.828217 1.642497 11.373853 5.245395 15.983443a24.955364 24.955364 0 0 0 34.951638 4.327009 24.955364 24.955364 0 0 0-1.006692-40.020421 17.678924 17.678924 0 0 1 20.328113-28.911486 60.330873 60.330873 0 0 1 2.384271 96.783718 59.765712 59.765712 0 0 1-36.965023 12.716109z" fill="#E57E25" p-id="28782"></path><path d="M723.93515 1024H310.855881a23.047948 23.047948 0 0 1-23.047947-23.047948V953.35495h459.192825v47.597102a23.08327 23.08327 0 0 1-23.065609 23.047948z" fill="#FEC722" p-id="28783"></path><path d="M661.6792 512.176613m-105.967575 0a105.967575 105.967575 0 1 0 211.93515 0 105.967575 105.967575 0 1 0-211.93515 0Z" fill="#FFFFFF" p-id="28784"></path><path d="M661.6792 512.176613m-35.322525 0a35.322525 35.322525 0 1 0 70.64505 0 35.322525 35.322525 0 1 0-70.64505 0Z" fill="#556080" p-id="28785"></path></svg>