<?xml version="1.0" standalone="no"?><!DOCTYPE svg PUBLIC "-//W3C//DTD SVG 1.1//EN" "http://www.w3.org/Graphics/SVG/1.1/DTD/svg11.dtd"><svg t="1756441939198" class="icon" viewBox="0 0 1024 1024" version="1.1" xmlns="http://www.w3.org/2000/svg" p-id="31291" xmlns:xlink="http://www.w3.org/1999/xlink" width="32" height="32"><path d="M1009.960653 841.156375H13.965714l95.741494-191.47156V475.469124c0-180.843773 122.379524-339.563468 294.743924-387.594203a109.706175 109.706175 0 0 1 215.024104 0A402.94164 402.94164 0 0 1 914.21916 475.469124v174.215691z m-877.649402-73.137451H891.615117l-50.533407-101.078241V475.469124c0-87.559241-34.363174-170.055999-96.769989-232.279971l-0.079994-0.079994a327.587211 327.587211 0 0 0-166.844808-90.187619l-31.597665-6.468093 2.468389-32.16905c0.091422-1.142773 0.262838-3.348324 0.262838-4.502524a36.568725 36.568725 0 0 0-73.13745 0c0 1.142773 0.171416 3.336896 0.262838 4.502524l2.468389 32.180478-31.62052 6.456665c-152.800132 31.197694-263.64908 166.844808-263.64908 322.547584v191.471559z" fill="#1262B3" p-id="31292"></path><path d="M511.963184 1024c-100.815404 0-182.843625-82.028221-182.843626-182.843625h73.13745a109.706175 109.706175 0 0 0 219.412351 0h73.13745c0 100.815404-82.028221 182.843625-182.843625 182.843625z" fill="#FF584D" p-id="31293"></path></svg>