<svg width="87" height="98" viewBox="0 0 87 98" fill="none" xmlns="http://www.w3.org/2000/svg">
<g id="yp">
<path id="Rectangle 9" d="M0 10C0 4.47715 4.47715 0 10 0H57.9411C60.5709 0 63.0948 1.03594 64.9664 2.88346L74.4545 12.25L84.1679 22.6379C85.9 24.4903 86.8636 26.9317 86.8636 29.4678V88C86.8636 93.5229 82.3865 98 76.8636 98H10C4.47716 98 0 93.5228 0 88V10Z" fill="url(#paint0_linear_417_2108)"/>
<g id="Group 15" filter="url(#filter0_di_417_2108)">
<path id="Rectangle 25" d="M63 70V49C63 37.9543 54.0457 29 43 29V29C31.9543 29 23 37.9543 23 49V70" stroke="white" stroke-width="8" stroke-linecap="round"/>
<rect id="Rectangle 26" x="19" y="56" width="16" height="20" rx="5" fill="white"/>
<rect id="Rectangle 27" x="51" y="56" width="16" height="20" rx="5" fill="white"/>
</g>
</g>
<defs>
<filter id="filter0_di_417_2108" x="18" y="23" width="50" height="56" filterUnits="userSpaceOnUse" color-interpolation-filters="sRGB">
<feFlood flood-opacity="0" result="BackgroundImageFix"/>
<feColorMatrix in="SourceAlpha" type="matrix" values="0 0 0 0 0 0 0 0 0 0 0 0 0 0 0 0 0 0 127 0" result="hardAlpha"/>
<feOffset dy="2"/>
<feGaussianBlur stdDeviation="0.5"/>
<feComposite in2="hardAlpha" operator="out"/>
<feColorMatrix type="matrix" values="0 0 0 0 0.497041 0 0 0 0 0.501027 0 0 0 0 0.97926 0 0 0 1 0"/>
<feBlend mode="normal" in2="BackgroundImageFix" result="effect1_dropShadow_417_2108"/>
<feBlend mode="normal" in="SourceGraphic" in2="effect1_dropShadow_417_2108" result="shape"/>
<feColorMatrix in="SourceAlpha" type="matrix" values="0 0 0 0 0 0 0 0 0 0 0 0 0 0 0 0 0 0 127 0" result="hardAlpha"/>
<feOffset dy="-2"/>
<feGaussianBlur stdDeviation="1"/>
<feComposite in2="hardAlpha" operator="arithmetic" k2="-1" k3="1"/>
<feColorMatrix type="matrix" values="0 0 0 0 0.794839 0 0 0 0 0.796912 0 0 0 0 1 0 0 0 1 0"/>
<feBlend mode="normal" in2="shape" result="effect2_innerShadow_417_2108"/>
</filter>
<linearGradient id="paint0_linear_417_2108" x1="42.5" y1="9" x2="41.4446" y2="90.9864" gradientUnits="userSpaceOnUse">
<stop stop-color="#A7A9FF"/>
<stop offset="1" stop-color="#8687FF"/>
</linearGradient>
</defs>
</svg>
