<svg width="87" height="98" viewBox="0 0 87 98" fill="none" xmlns="http://www.w3.org/2000/svg">
<g id="e">
<path id="Rectangle 9" d="M0 10C0 4.47715 4.47715 0 10 0H57.9411C60.5709 0 63.0948 1.03594 64.9664 2.88346L74.4545 12.25L84.1679 22.6379C85.9 24.4903 86.8636 26.9317 86.8636 29.4678V88C86.8636 93.5229 82.3865 98 76.8636 98H10C4.47716 98 0 93.5228 0 88V10Z" fill="url(#paint0_linear_417_2098)"/>
<g id="Vector" filter="url(#filter0_di_417_2098)">
<path d="M26 33.4461L60 70.8262M35.9173 59.6136L26.196 71M59.2689 32.9999L49.5477 44.3863" stroke="url(#paint1_linear_417_2098)" stroke-width="8" stroke-linecap="round"/>
</g>
</g>
<defs>
<filter id="filter0_di_417_2098" x="21" y="26.9999" width="44" height="51.0002" filterUnits="userSpaceOnUse" color-interpolation-filters="sRGB">
<feFlood flood-opacity="0" result="BackgroundImageFix"/>
<feColorMatrix in="SourceAlpha" type="matrix" values="0 0 0 0 0 0 0 0 0 0 0 0 0 0 0 0 0 0 127 0" result="hardAlpha"/>
<feOffset dy="2"/>
<feGaussianBlur stdDeviation="0.5"/>
<feComposite in2="hardAlpha" operator="out"/>
<feColorMatrix type="matrix" values="0 0 0 0 0.402688 0 0 0 0 0.740727 0 0 0 0 0.225 0 0 0 1 0"/>
<feBlend mode="normal" in2="BackgroundImageFix" result="effect1_dropShadow_417_2098"/>
<feBlend mode="normal" in="SourceGraphic" in2="effect1_dropShadow_417_2098" result="shape"/>
<feColorMatrix in="SourceAlpha" type="matrix" values="0 0 0 0 0 0 0 0 0 0 0 0 0 0 0 0 0 0 127 0" result="hardAlpha"/>
<feOffset dy="-2"/>
<feGaussianBlur stdDeviation="1"/>
<feComposite in2="hardAlpha" operator="arithmetic" k2="-1" k3="1"/>
<feColorMatrix type="matrix" values="0 0 0 0 0.797229 0 0 0 0 1 0 0 0 0 0.693243 0 0 0 1 0"/>
<feBlend mode="normal" in2="shape" result="effect2_innerShadow_417_2098"/>
</filter>
<linearGradient id="paint0_linear_417_2098" x1="2.44717e-06" y1="6.125" x2="85.6667" y2="99.1028" gradientUnits="userSpaceOnUse">
<stop stop-color="#87CE64"/>
<stop offset="1" stop-color="#6ABC3F"/>
</linearGradient>
<linearGradient id="paint1_linear_417_2098" x1="43" y1="33" x2="35.5084" y2="65.6626" gradientUnits="userSpaceOnUse">
<stop stop-color="white"/>
<stop offset="1" stop-color="#EBFFE1"/>
</linearGradient>
</defs>
</svg>
