<svg width="100" height="93" viewBox="0 0 100 93" fill="none" xmlns="http://www.w3.org/2000/svg">
<g id="wjj">
<g id="Vector 10">
<path d="M0 73V20C0 8.95431 8.95431 0 20 0H42.1262C46.1819 0 50.0457 1.72751 52.75 4.75C55.4543 7.77249 59.3181 9.5 63.3738 9.5H80C91.0457 9.5 100 18.4543 100 29.5V73C100 84.0457 91.0457 93 80 93H20C8.95431 93 0 84.0457 0 73Z" fill="#F5B430"/>
<path d="M0 73V20C0 8.95431 8.95431 0 20 0H42.1262C46.1819 0 50.0457 1.72751 52.75 4.75C55.4543 7.77249 59.3181 9.5 63.3738 9.5H80C91.0457 9.5 100 18.4543 100 29.5V73C100 84.0457 91.0457 93 80 93H20C8.95431 93 0 84.0457 0 73Z" fill="url(#paint0_linear_417_2133)"/>
</g>
<rect id="Rectangle 60" x="13" y="20" width="74" height="27" rx="10" fill="url(#paint1_linear_417_2133)"/>
<g id="Vector 10_2">
<path d="M0 73V42C0 36.4772 4.47715 32 10 32H90C95.5228 32 100 36.4772 100 42V73C100 84.0457 91.0457 93 80 93H20C8.95431 93 0 84.0457 0 73Z" fill="#F7D150"/>
<path d="M0 73V42C0 36.4772 4.47715 32 10 32H90C95.5228 32 100 36.4772 100 42V73C100 84.0457 91.0457 93 80 93H20C8.95431 93 0 84.0457 0 73Z" fill="url(#paint2_linear_417_2133)"/>
</g>
</g>
<defs>
<linearGradient id="paint0_linear_417_2133" x1="29" y1="17.5" x2="29" y2="-3.31879e-07" gradientUnits="userSpaceOnUse">
<stop stop-color="#F8D56E" stop-opacity="0"/>
<stop offset="1" stop-color="#FFDF7B"/>
</linearGradient>
<linearGradient id="paint1_linear_417_2133" x1="46.4337" y1="20" x2="46.9944" y2="36.9962" gradientUnits="userSpaceOnUse">
<stop stop-color="white"/>
<stop offset="1" stop-color="white" stop-opacity="0"/>
</linearGradient>
<linearGradient id="paint2_linear_417_2133" x1="30.5" y1="45.0342" x2="30.5" y2="31.4786" gradientUnits="userSpaceOnUse">
<stop stop-color="#F8D56E" stop-opacity="0"/>
<stop offset="1" stop-color="#FFE38E"/>
</linearGradient>
</defs>
</svg>
