<svg width="87" height="98" viewBox="0 0 87 98" fill="none" xmlns="http://www.w3.org/2000/svg">
<g id="pdf">
<path id="Rectangle 8" d="M0 10C0 4.47715 4.47715 0 10 0H57.9411C60.5709 0 63.0948 1.03594 64.9664 2.88346L74.4545 12.25L84.1679 22.6379C85.9 24.4903 86.8636 26.9317 86.8636 29.4678V88C86.8636 93.5229 82.3865 98 76.8636 98H10C4.47716 98 0 93.5228 0 88V10Z" fill="url(#paint0_linear_417_2086)"/>
<g id="Vector 6" filter="url(#filter0_di_417_2086)">
<path d="M40.018 40.8343C41.9503 34.7085 42.8748 25.5217 39.2836 26.5424C35.6924 27.5631 38.2628 40.8341 45.4086 51.0424C52.5545 61.2507 65.8253 62.2716 65.8253 59.2091C65.8253 56.1466 50.1947 55.1257 35.2003 60.2299C23.0916 64.3518 18.867 70.4382 20.9086 72.4799C22.9503 74.5216 31.6458 67.3754 40.018 40.8343Z" stroke="url(#paint1_linear_417_2086)" stroke-width="7.2" shape-rendering="crispEdges"/>
</g>
</g>
<defs>
<filter id="filter0_di_417_2086" x="14.8203" y="20.8645" width="56.605" height="59.5419" filterUnits="userSpaceOnUse" color-interpolation-filters="sRGB">
<feFlood flood-opacity="0" result="BackgroundImageFix"/>
<feColorMatrix in="SourceAlpha" type="matrix" values="0 0 0 0 0 0 0 0 0 0 0 0 0 0 0 0 0 0 127 0" result="hardAlpha"/>
<feOffset dy="2"/>
<feGaussianBlur stdDeviation="1"/>
<feComposite in2="hardAlpha" operator="out"/>
<feColorMatrix type="matrix" values="0 0 0 0 0.968627 0 0 0 0 0.317647 0 0 0 0 0.392157 0 0 0 1 0"/>
<feBlend mode="normal" in2="BackgroundImageFix" result="effect1_dropShadow_417_2086"/>
<feBlend mode="normal" in="SourceGraphic" in2="effect1_dropShadow_417_2086" result="shape"/>
<feColorMatrix in="SourceAlpha" type="matrix" values="0 0 0 0 0 0 0 0 0 0 0 0 0 0 0 0 0 0 127 0" result="hardAlpha"/>
<feOffset dy="-2"/>
<feGaussianBlur stdDeviation="1"/>
<feComposite in2="hardAlpha" operator="arithmetic" k2="-1" k3="1"/>
<feColorMatrix type="matrix" values="0 0 0 0 0.968627 0 0 0 0 0.321569 0 0 0 0 0.392157 0 0 0 0.3 0"/>
<feBlend mode="normal" in2="shape" result="effect2_innerShadow_417_2086"/>
</filter>
<linearGradient id="paint0_linear_417_2086" x1="43.4318" y1="0" x2="43.4318" y2="98" gradientUnits="userSpaceOnUse">
<stop stop-color="#FF8082"/>
<stop offset="1" stop-color="#FF6677"/>
</linearGradient>
<linearGradient id="paint1_linear_417_2086" x1="53.0832" y1="37.771" x2="18.3748" y2="74.521" gradientUnits="userSpaceOnUse">
<stop stop-color="white"/>
<stop offset="1" stop-color="#FFE8E9"/>
</linearGradient>
</defs>
</svg>
