<?xml version="1.0" standalone="no"?><!DOCTYPE svg PUBLIC "-//W3C//DTD SVG 1.1//EN" "http://www.w3.org/Graphics/SVG/1.1/DTD/svg11.dtd"><svg t="1736244468493" class="icon" viewBox="0 0 1024 1024" version="1.1" xmlns="http://www.w3.org/2000/svg" p-id="41953" xmlns:xlink="http://www.w3.org/1999/xlink" width="48" height="48"><path d="M131.758987 9.721519h532.181874l282.079595 280.990785v658.548658a62.632506 62.632506 0 0 1-62.632507 62.645468H131.758987a62.632506 62.632506 0 0 1-62.645468-62.632506V72.341063A62.645468 62.645468 0 0 1 131.758987 9.721519z" fill="#26A6D1" p-id="41954"></path><path d="M398.711899 445.077063h-55.438583c-15.658127 0-24.394532 9.708557-24.394531 24.394532v175.920608c0 15.658127 9.980759 24.394532 23.461266 24.394531 13.467544 0 23.48719-8.775291 23.48719-24.394531v-51.368507h34.738227c42.865418 0 78.251747-28.464608 78.251747-74.194633 0.038886-44.718987-34.090127-74.752-80.105316-74.752z m-0.946228 107.662583h-31.93843v-66.326684h31.93843c19.728203 0 32.223595 14.374886 32.223595 33.169823 0 18.756051-12.48243 33.169823-32.223595 33.169823z m188.467848-46.002228c0-13.143494 12.262076-20.324456 25.690734-20.324456 18.794937 0 28.775696 9.397468 41.621063 9.397468 12.806481 0 20.946633-10.991797 20.946633-23.176101 0-24.70562-43.772759-31.290329-61.310379-31.290329-41.659949 0-77.642532 27.220253-77.642532 71.070785 0 72.587342 104.564658 50.383392 104.564658 87.338126 0 15.347038-11.276962 26.935089-31.977316 26.935089-20.28557 0-37.888-12.210228-52.612861-12.210228-12.806481 0-20.946633 9.954835-20.946633 22.20395 0 29.371949 51.977722 35.049316 76.061165 35.049316 43.189468 0 80.209013-27.907241 80.209012-72.600304 0-80.805266-104.603544-60.195646-104.603544-92.393316z" fill="#FFFFFF" p-id="41955"></path><path d="M945.126076 291.580759H726.780759a62.65843 62.65843 0 0 1-62.632506-62.632506V10.343696l280.964861 281.237063z" fill="#1E7EA0" p-id="41956"></path></svg>