<svg width="87" height="98" viewBox="0 0 87 98" fill="none" xmlns="http://www.w3.org/2000/svg">
<g id="txt">
<path id="Rectangle 8" d="M0 10C0 4.47715 4.47715 0 10 0H57.9411C60.5709 0 63.0948 1.03594 64.9664 2.88346L74.4545 12.25L84.1679 22.6379C85.9 24.4903 86.8636 26.9317 86.8636 29.4678V88C86.8636 93.5229 82.3865 98 76.8636 98H10C4.47716 98 0 93.5228 0 88V10Z" fill="url(#paint0_linear_417_2095)"/>
<g id="Vector" filter="url(#filter0_di_417_2095)">
<path d="M25 38H59M42.2267 39.5309V69" stroke="url(#paint1_linear_417_2095)" stroke-width="8" stroke-linecap="round"/>
</g>
</g>
<defs>
<filter id="filter0_di_417_2095" x="20" y="32" width="44" height="44" filterUnits="userSpaceOnUse" color-interpolation-filters="sRGB">
<feFlood flood-opacity="0" result="BackgroundImageFix"/>
<feColorMatrix in="SourceAlpha" type="matrix" values="0 0 0 0 0 0 0 0 0 0 0 0 0 0 0 0 0 0 127 0" result="hardAlpha"/>
<feOffset dy="2"/>
<feGaussianBlur stdDeviation="0.5"/>
<feComposite in2="hardAlpha" operator="out"/>
<feColorMatrix type="matrix" values="0 0 0 0 0.937363 0 0 0 0 0.476117 0 0 0 0 0.289233 0 0 0 1 0"/>
<feBlend mode="normal" in2="BackgroundImageFix" result="effect1_dropShadow_417_2095"/>
<feBlend mode="normal" in="SourceGraphic" in2="effect1_dropShadow_417_2095" result="shape"/>
<feColorMatrix in="SourceAlpha" type="matrix" values="0 0 0 0 0 0 0 0 0 0 0 0 0 0 0 0 0 0 127 0" result="hardAlpha"/>
<feOffset dy="-2"/>
<feGaussianBlur stdDeviation="1"/>
<feComposite in2="hardAlpha" operator="arithmetic" k2="-1" k3="1"/>
<feColorMatrix type="matrix" values="0 0 0 0 0.960784 0 0 0 0 0.494118 0 0 0 0 0.317647 0 0 0 0.43 0"/>
<feBlend mode="normal" in2="shape" result="effect2_innerShadow_417_2095"/>
</filter>
<linearGradient id="paint0_linear_417_2095" x1="2.44717e-06" y1="6.125" x2="85.6667" y2="99.1028" gradientUnits="userSpaceOnUse">
<stop stop-color="#FFA16F"/>
<stop offset="1" stop-color="#F2764D"/>
</linearGradient>
<linearGradient id="paint1_linear_417_2095" x1="43.0968" y1="38" x2="38.136" y2="63.9041" gradientUnits="userSpaceOnUse">
<stop stop-color="white"/>
<stop offset="1" stop-color="#FFF1E0"/>
</linearGradient>
</defs>
</svg>
