<svg width="87" height="98" viewBox="0 0 87 98" fill="none" xmlns="http://www.w3.org/2000/svg">
<g id="sp">
<path id="Rectangle 9" d="M0 10C0 4.47715 4.47715 0 10 0H57.9411C60.5709 0 63.0948 1.03594 64.9664 2.88346L74.4545 12.25L84.1679 22.6379C85.9 24.4903 86.8636 26.9317 86.8636 29.4678V88C86.8636 93.5229 82.3865 98 76.8636 98H10C4.47716 98 0 93.5228 0 88V10Z" fill="url(#paint0_linear_417_2105)"/>
<g id="Polygon 1" filter="url(#filter0_di_417_2105)">
<path d="M59.5 45.6699C62.8333 47.5944 62.8333 52.4056 59.5 54.3301L37 67.3205C33.6667 69.245 29.5 66.8394 29.5 62.9904L29.5 37.0096C29.5 33.1606 33.6667 30.755 37 32.6795L59.5 45.6699Z" fill="url(#paint1_linear_417_2105)"/>
</g>
</g>
<defs>
<filter id="filter0_di_417_2105" x="28.5" y="30.0021" width="34.5" height="40.9957" filterUnits="userSpaceOnUse" color-interpolation-filters="sRGB">
<feFlood flood-opacity="0" result="BackgroundImageFix"/>
<feColorMatrix in="SourceAlpha" type="matrix" values="0 0 0 0 0 0 0 0 0 0 0 0 0 0 0 0 0 0 127 0" result="hardAlpha"/>
<feOffset dy="2"/>
<feGaussianBlur stdDeviation="0.5"/>
<feComposite in2="hardAlpha" operator="out"/>
<feColorMatrix type="matrix" values="0 0 0 0 0.581722 0 0 0 0 0.244178 0 0 0 0 0.888579 0 0 0 1 0"/>
<feBlend mode="normal" in2="BackgroundImageFix" result="effect1_dropShadow_417_2105"/>
<feBlend mode="normal" in="SourceGraphic" in2="effect1_dropShadow_417_2105" result="shape"/>
<feColorMatrix in="SourceAlpha" type="matrix" values="0 0 0 0 0 0 0 0 0 0 0 0 0 0 0 0 0 0 127 0" result="hardAlpha"/>
<feOffset dy="-2"/>
<feGaussianBlur stdDeviation="1"/>
<feComposite in2="hardAlpha" operator="arithmetic" k2="-1" k3="1"/>
<feColorMatrix type="matrix" values="0 0 0 0 0.874743 0 0 0 0 0.747696 0 0 0 0 1 0 0 0 1 0"/>
<feBlend mode="normal" in2="shape" result="effect2_innerShadow_417_2105"/>
</filter>
<linearGradient id="paint0_linear_417_2105" x1="2.44717e-06" y1="6.125" x2="85.6667" y2="99.1028" gradientUnits="userSpaceOnUse">
<stop stop-color="#B872FE"/>
<stop offset="1" stop-color="#9846E1"/>
</linearGradient>
<linearGradient id="paint1_linear_417_2105" x1="67" y1="50" x2="17" y2="50" gradientUnits="userSpaceOnUse">
<stop stop-color="white"/>
<stop offset="1" stop-color="#FFE0C6"/>
</linearGradient>
</defs>
</svg>
