<svg width="88" height="98" viewBox="0 0 88 98" fill="none" xmlns="http://www.w3.org/2000/svg">
<g id="doc">
<path id="Rectangle 8" d="M0.333496 10C0.333496 4.47715 4.81065 0 10.3335 0H58.2746C60.9044 0 63.4283 1.03594 65.2999 2.88346L74.788 12.25L84.5014 22.6379C86.2335 24.4903 87.1971 26.9317 87.1971 29.4678V88C87.1971 93.5229 82.72 98 77.1971 98H10.3335C4.81066 98 0.333496 93.5228 0.333496 88V10Z" fill="url(#paint0_linear_417_2089)"/>
<g id="Vector 7" filter="url(#filter0_di_417_2089)">
<path d="M25.875 30.625V69.2328C25.875 70.2898 27.3013 70.6241 27.7709 69.6771L42.3125 40.3555C42.6799 39.6145 43.7368 39.6145 44.1042 40.3555L58.6458 69.6771C59.1154 70.6241 60.5417 70.2898 60.5417 69.2328V30.625" stroke="url(#paint1_linear_417_2089)" stroke-width="8" stroke-linecap="round"/>
</g>
</g>
<defs>
<filter id="filter0_di_417_2089" x="20.875" y="24.625" width="44.6665" height="52.6153" filterUnits="userSpaceOnUse" color-interpolation-filters="sRGB">
<feFlood flood-opacity="0" result="BackgroundImageFix"/>
<feColorMatrix in="SourceAlpha" type="matrix" values="0 0 0 0 0 0 0 0 0 0 0 0 0 0 0 0 0 0 127 0" result="hardAlpha"/>
<feOffset dy="2"/>
<feGaussianBlur stdDeviation="0.5"/>
<feComposite in2="hardAlpha" operator="out"/>
<feColorMatrix type="matrix" values="0 0 0 0 0.145098 0 0 0 0 0.509804 0 0 0 0 0.964706 0 0 0 1 0"/>
<feBlend mode="normal" in2="BackgroundImageFix" result="effect1_dropShadow_417_2089"/>
<feBlend mode="normal" in="SourceGraphic" in2="effect1_dropShadow_417_2089" result="shape"/>
<feColorMatrix in="SourceAlpha" type="matrix" values="0 0 0 0 0 0 0 0 0 0 0 0 0 0 0 0 0 0 127 0" result="hardAlpha"/>
<feOffset dy="-2"/>
<feGaussianBlur stdDeviation="1"/>
<feComposite in2="hardAlpha" operator="arithmetic" k2="-1" k3="1"/>
<feColorMatrix type="matrix" values="0 0 0 0 0.137255 0 0 0 0 0.505882 0 0 0 0 0.964706 0 0 0 0.3 0"/>
<feBlend mode="normal" in2="shape" result="effect2_innerShadow_417_2089"/>
</filter>
<linearGradient id="paint0_linear_417_2089" x1="0.333499" y1="6.125" x2="86.0002" y2="99.1028" gradientUnits="userSpaceOnUse">
<stop stop-color="#5EA3FF"/>
<stop offset="1" stop-color="#318AF8"/>
</linearGradient>
<linearGradient id="paint1_linear_417_2089" x1="43.2083" y1="30.625" x2="33.9584" y2="67.0689" gradientUnits="userSpaceOnUse">
<stop stop-color="white"/>
<stop offset="1" stop-color="#E0EEFF"/>
</linearGradient>
</defs>
</svg>
